<?xml version="1.0" encoding="utf-8"?>
<!-- Generator: Adobe Illustrator 19.1.0, SVG Export Plug-In . SVG Version: 6.00 Build 0)  -->
<svg version="1.1" id="Layer_1" xmlns="http://www.w3.org/2000/svg" xmlns:xlink="http://www.w3.org/1999/xlink" x="0px" y="0px"
	 viewBox="0 0 122.8 23.2" style="enable-background:new 0 0 122.8 23.2;" xml:space="preserve">
<style type="text/css">
	.st0{fill:#333333;}
	.st1{fill:#6D6E70;}
</style>
<g>
	<g>
		<path class="st0" d="M11.5,9.2L11.5,9.2C10.7,8.4,9.7,8,8.1,7.8c0,0,0,0-2-0.3C5.3,7.4,4.6,7.1,4.2,6.7C3.8,6.4,3.6,5.9,3.6,5.3
			c0-1.5,1.2-2.5,3-2.5c1.6,0,2.7,0.4,3.7,1.3c0.1,0.1,0.2,0.1,0.3,0l1.7-1.7c0,0,0.1-0.1,0.1-0.2c0-0.1,0-0.1-0.1-0.2
			C10.8,0.6,9.1,0,6.7,0C3,0,0.6,2.1,0.6,5.4C0.6,6.9,1,8,1.9,8.9c0.8,0.8,2,1.3,3.5,1.5l2.1,0.3c1,0.1,1.4,0.3,1.8,0.7
			c0.4,0.4,0.6,0.9,0.6,1.7c0,1.6-1.2,2.5-3.4,2.5c-1.9,0-3.2-0.5-4.3-1.6c-0.1-0.1-0.2-0.1-0.3,0l-1.8,1.8c0,0-0.1,0.1-0.1,0.2
			c0,0.1,0,0.1,0.1,0.2c1.6,1.7,3.6,2.4,6.4,2.4c4,0,6.5-2.1,6.5-5.4C13,11.3,12.5,10,11.5,9.2"/>
		<path class="st0" d="M24.2,9.6c0-3-1.9-4.5-5.4-4.5c-2.2,0-3.5,0.5-4.7,1.9c-0.1,0.1-0.1,0.2,0,0.3l1.7,1.6c0,0,0.1,0.1,0.2,0.1
			c0.1,0,0.1,0,0.2-0.1c0.7-0.9,1.3-1.1,2.6-1.1c1.8,0,2.5,0.6,2.5,2.1v0.7h-3.1c-2.8,0-4.5,1.5-4.5,3.8c0,1.1,0.4,2.1,1,2.8
			c0.8,0.8,1.9,1.2,3.5,1.2c1.3,0,2.2-0.3,3.1-1l0,0v0.6c0,0.1,0.1,0.2,0.2,0.2H24c0.1,0,0.2-0.1,0.2-0.2V9.6z M21.2,13.4
			c0,0.8-0.2,1.4-0.5,1.7c-0.6,0.6-1.2,0.7-2.2,0.7c-1.4,0-2.1-0.5-2.1-1.6c0-1.3,1.1-1.6,2-1.6h2.7h0V13.4z"/>
		<path class="st0" d="M34.8,6.2c-0.7-0.7-1.9-1.2-3.2-1.2c-1.3,0-2.2,0.3-3,1.1l0,0V5.4c0-0.1-0.1-0.2-0.2-0.2h-2.5
			c-0.1,0-0.2,0.1-0.2,0.2V23c0,0.1,0.1,0.2,0.2,0.2h2.5c0.1,0,0.2-0.1,0.2-0.2v-5.8l0,0c0.8,0.7,1.7,1.1,3,1.1
			c1.3,0,2.4-0.4,3.2-1.2c1.3-1.3,1.5-3.5,1.5-5.5C36.2,9.6,36.1,7.5,34.8,6.2 M30.9,15.6c-2,0-2.4-1.6-2.4-4c0-2.4,0.4-3.9,2.4-3.9
			c2,0,2.4,1.5,2.4,3.9C33.3,14,32.9,15.6,30.9,15.6"/>
		<path class="st0" d="M40.3,5.4c0-0.1-0.1-0.2-0.2-0.2h-2.5c-0.1,0-0.2,0.1-0.2,0.2v12.5c0,0.1,0.1,0.2,0.2,0.2h2.5
			c0.1,0,0.2-0.1,0.2-0.2V5.4z"/>
		<path class="st0" d="M40.4,0.8c0-0.1-0.1-0.2-0.2-0.2h-2.7c-0.1,0-0.2,0.1-0.2,0.2V3c0,0.1,0.1,0.2,0.2,0.2h2.7
			c0.1,0,0.2-0.1,0.2-0.2V0.8z"/>
		<path class="st0" d="M52.3,11.3c0-3.8-2.2-6.2-5.5-6.2c-3.4,0-5.5,2.5-5.5,6.6c0,4.3,2.1,6.6,5.9,6.6c2.4,0,3.6-0.8,4.8-2
			c0,0,0.1-0.1,0.1-0.2c0-0.1,0-0.1-0.1-0.2l-1.6-1.5c-0.1-0.1-0.2-0.1-0.3,0c-0.8,0.8-1.5,1.2-2.9,1.2c-1.8,0-2.9-1.1-3-3v0h7.9
			c0.1,0,0.2-0.1,0.2-0.2V11.3z M44.2,10.4L44.2,10.4c0-0.6,0.1-1,0.3-1.4c0.4-0.9,1.2-1.4,2.3-1.4c1,0,1.9,0.5,2.3,1.4
			c0.2,0.5,0.3,0.8,0.3,1.4v0H44.2z"/>
		<path class="st0" d="M64,9.9c0-1.7-0.4-2.8-1.3-3.7c-0.8-0.8-1.9-1.2-3.2-1.2c-1.2,0-2.2,0.4-3.1,1.1l0,0V5.4
			c0-0.1-0.1-0.2-0.2-0.2h-2.5c-0.1,0-0.2,0.1-0.2,0.2v12.5c0,0.1,0.1,0.2,0.2,0.2h2.5c0.1,0,0.2-0.1,0.2-0.2v-7.6
			c0-1.6,0.9-2.6,2.4-2.6c1.5,0,2.3,0.9,2.3,2.6v7.6c0,0.1,0.1,0.2,0.2,0.2h2.5c0.1,0,0.2-0.1,0.2-0.2V9.9z"/>
		<path class="st0" d="M71.2,15.8c0-0.1-0.1-0.2-0.2-0.2h-1c-0.8,0-1.2-0.4-1.2-1.2V7.8h2.2c0.1,0,0.2-0.1,0.2-0.2V5.6
			c0-0.1-0.1-0.2-0.2-0.2h-2.2V1.8c0-0.1-0.1-0.2-0.2-0.2c0,0-2.5,0.7-2.5,0.7c-0.1,0-0.2,0.1-0.2,0.2v2.9h-1.2
			c-0.1,0-0.2,0.1-0.2,0.2v1.9c0,0.1,0.1,0.2,0.2,0.2h1.2v6.7c0,1.8,1.1,3.7,3.7,3.7h1.5c0.1,0,0.2-0.1,0.2-0.2V15.8z"/>
		<path class="st1" d="M90.6,5.4c0-0.1-0.1-0.2-0.2-0.2h-2.5c-0.1,0-0.2,0.1-0.2,0.2V18c0,0.1,0.1,0.2,0.2,0.2h2.5
			c0.1,0,0.2-0.1,0.2-0.2V5.4z"/>
		<path class="st1" d="M90.7,0.8c0-0.1-0.1-0.2-0.2-0.2h-2.7c-0.1,0-0.2,0.1-0.2,0.2V3c0,0.1,0.1,0.2,0.2,0.2h2.7
			c0.1,0,0.2-0.1,0.2-0.2V0.8z"/>
		<path class="st1" d="M98.8,15.8c0-0.1-0.1-0.2-0.2-0.2h-1c-0.8,0-1.2-0.4-1.2-1.2V7.8h2.2c0.1,0,0.2-0.1,0.2-0.2V5.6
			c0-0.1-0.1-0.2-0.2-0.2h-2.2V1.8c0-0.1-0.1-0.2-0.2-0.2c0,0-2.5,0.7-2.5,0.7c-0.1,0-0.2,0.1-0.2,0.2v2.9h-1.2
			c-0.1,0-0.2,0.1-0.2,0.2v1.9c0,0.1,0.1,0.2,0.2,0.2h1.2v6.7c0,1.8,1.1,3.7,3.7,3.7h1.5c0.1,0,0.2-0.1,0.2-0.2V15.8z"/>
		<path class="st1" d="M83.2,18.2c-0.1,0-0.3-0.1-0.3-0.2L76.3,7.3c-0.1-0.1-0.1-0.1-0.1,0v10.6c0,0.1-0.1,0.2-0.2,0.2H73
			c-0.1,0-0.2-0.1-0.2-0.2V0.4c0-0.1,0.1-0.2,0.2-0.2h2.6c0.1,0,0.3,0.1,0.3,0.2L82.6,11c0.1,0.1,0.1,0.1,0.1,0V0.4
			c0-0.1,0.1-0.2,0.2-0.2h2.9c0.1,0,0.2,0.1,0.2,0.2v17.6c0,0.1-0.1,0.2-0.2,0.2H83.2z"/>
		<path class="st1" d="M118.1,16.8c-0.8,0.8-2.1,1.6-4,1.6c-1.9,0-3.2-0.7-4-1.6c-1.2-1.2-1.5-2.7-1.5-5c0-2.3,0.3-3.8,1.5-5
			c0.8-0.8,2.1-1.6,4-1.6c1.9,0,3.2,0.7,4,1.6c1.2,1.2,1.5,2.7,1.5,5C119.5,14.2,119.2,15.6,118.1,16.8 M115.6,8.7
			c-0.4-0.4-0.9-0.6-1.5-0.6c-0.6,0-1.1,0.2-1.5,0.6c-0.7,0.7-0.7,1.8-0.7,3.1c0,1.3,0.1,2.5,0.7,3.1c0.4,0.4,0.8,0.6,1.5,0.6
			c0.6,0,1.1-0.2,1.5-0.6c0.7-0.7,0.7-1.8,0.7-3.1C116.3,10.5,116.2,9.4,115.6,8.7"/>
		<path class="st1" d="M120.5,5.6c0,0.2-0.1,0.4-0.2,0.5c-0.2,0.1-0.3,0.2-0.6,0.2c-0.3,0-0.6-0.1-0.8-0.3l0.3-0.3
			c0.1,0.1,0.3,0.2,0.5,0.2c0.3,0,0.4-0.1,0.4-0.3c0-0.1,0-0.1-0.1-0.2c0,0-0.1-0.1-0.2-0.1l-0.3,0c-0.4-0.1-0.6-0.3-0.6-0.6
			c0-0.2,0.1-0.4,0.2-0.5c0.1-0.1,0.3-0.2,0.6-0.2c0.3,0,0.5,0.1,0.7,0.3l-0.3,0.3c-0.1-0.1-0.3-0.2-0.5-0.1c-0.1,0-0.2,0-0.3,0.1
			c-0.1,0.1-0.1,0.1-0.1,0.2c0,0.1,0,0.1,0.1,0.2c0,0,0.1,0.1,0.2,0.1l0.3,0c0.2,0,0.3,0.1,0.4,0.2C120.4,5.3,120.5,5.4,120.5,5.6"
			/>
	</g>
	<polygon class="st1" points="122.4,4.1 121.8,5.3 121.3,4.1 120.8,4.1 120.8,6.3 121.3,6.3 121.3,5 121.7,5.8 122,5.8 122.4,5 
		122.4,6.3 122.8,6.3 122.8,4.1 	"/>
	<g>
		<path class="st1" d="M109.4,6.5L109.4,6.5L109.4,6.5c-0.9-0.9-1.8-1.3-3-1.3c-1.3,0-2.5,0.5-3.1,1.2v-1c0-0.1-0.1-0.2-0.2-0.2
			h-2.5c-0.1,0-0.2,0.1-0.2,0.2V18c0,0.1,0.1,0.2,0.2,0.2h2.5c0.1,0,0.2-0.1,0.2-0.2v-8c0-1,1.1-1.9,2.1-1.9c0.8,0,1.2,0.3,1.7,0.8
			l0,0v0c0.1,0.1,0.2,0.1,0.3,0l2-2C109.5,6.8,109.5,6.6,109.4,6.5"/>
	</g>
</g>
</svg>
