<?xml version="1.0" encoding="utf-8"?>
<!-- Generator: Adobe Illustrator 19.1.0, SVG Export Plug-In . SVG Version: 6.00 Build 0)  -->
<svg version="1.1" id="Layer_1" xmlns="http://www.w3.org/2000/svg" xmlns:xlink="http://www.w3.org/1999/xlink" x="0px" y="0px"
	 viewBox="-953 537 10.3 8.1" style="enable-background:new -953 537 10.3 8.1;" xml:space="preserve">
<style type="text/css">
	.st0{fill:none;enable-background:new    ;}
</style>
<path class="st0" d="z"/>
<path d="M-942.7,537.9c0,0.3-0.1,0.6-0.3,0.9c-0.2,0.3-0.4,0.5-0.7,0.7c-1.4,1-2.3,1.6-2.7,1.9c0,0-0.1,0.1-0.2,0.2
	c-0.1,0.1-0.2,0.2-0.3,0.2c-0.1,0.1-0.2,0.1-0.3,0.2c-0.1,0.1-0.2,0.1-0.3,0.2c-0.1,0-0.2,0.1-0.3,0.1h0h0c-0.1,0-0.2,0-0.3-0.1
	c-0.1,0-0.2-0.1-0.3-0.2c-0.1-0.1-0.2-0.1-0.3-0.2c-0.1-0.1-0.2-0.1-0.3-0.2c-0.1-0.1-0.2-0.1-0.2-0.2c-0.4-0.2-0.9-0.6-1.5-1.1
	c-0.7-0.5-1.1-0.7-1.2-0.8c-0.2-0.2-0.5-0.4-0.7-0.7c-0.2-0.3-0.3-0.5-0.3-0.8c0-0.3,0.1-0.6,0.2-0.8c0.2-0.2,0.4-0.3,0.7-0.3h8.5
	c0.3,0,0.5,0.1,0.6,0.3C-942.7,537.5-942.7,537.7-942.7,537.9z M-943.2,540.1c0.2-0.2,0.4-0.3,0.6-0.5v4.6c0,0.3-0.1,0.5-0.3,0.7
	c-0.2,0.2-0.4,0.3-0.7,0.3h-8.5c-0.3,0-0.5-0.1-0.7-0.3s-0.3-0.4-0.3-0.7v-4.6c0.2,0.2,0.4,0.4,0.6,0.5c1.4,0.9,2.3,1.6,2.9,2
	c0.2,0.2,0.4,0.3,0.5,0.4c0.1,0.1,0.3,0.2,0.5,0.3c0.2,0.1,0.4,0.1,0.6,0.1h0h0c0.2,0,0.4,0,0.6-0.1c0.2-0.1,0.4-0.2,0.5-0.3
	c0.1-0.1,0.3-0.2,0.5-0.4C-945.5,541.6-944.5,541-943.2,540.1L-943.2,540.1z"/>
</svg>
