<?xml version="1.0" encoding="utf-8"?>
<!-- Generator: Adobe Illustrator 19.1.0, SVG Export Plug-In . SVG Version: 6.00 Build 0)  -->
<svg version="1.1" id="Layer_1" xmlns="http://www.w3.org/2000/svg" xmlns:xlink="http://www.w3.org/1999/xlink" x="0px" y="0px"
	 viewBox="-955 534 6.8 10.1" style="enable-background:new -955 534 6.8 10.1;" xml:space="preserve">
<style type="text/css">
	.st0{fill:none;enable-background:new    ;}
</style>
<path class="st0" d="z"/>
<path d="M-951.3,543.5c0.1-0.1,0.1-0.2,0.1-0.3c0-0.1,0-0.2-0.1-0.3c-0.1-0.1-0.2-0.1-0.3-0.1c-0.1,0-0.2,0-0.3,0.1
	c-0.1,0.1-0.1,0.2-0.1,0.3c0,0.1,0,0.2,0.1,0.3c0.1,0.1,0.2,0.1,0.3,0.1C-951.5,543.7-951.4,543.6-951.3,543.5z M-948.2,535.2v7.8
	c0,0.3-0.1,0.6-0.3,0.8c-0.2,0.2-0.5,0.3-0.8,0.3h-4.5c-0.3,0-0.6-0.1-0.8-0.3c-0.2-0.2-0.3-0.5-0.3-0.8v-7.8c0-0.3,0.1-0.6,0.3-0.8
	c0.2-0.2,0.5-0.3,0.8-0.3h4.5c0.3,0,0.6,0.1,0.8,0.3C-948.3,534.6-948.2,534.8-948.2,535.2z M-949.1,542.1v-6.9c0-0.1,0-0.1-0.1-0.2
	c0,0-0.1-0.1-0.2-0.1h-4.5c-0.1,0-0.1,0-0.2,0.1c0,0-0.1,0.1-0.1,0.2v6.9c0,0.1,0,0.1,0.1,0.2c0,0,0.1,0.1,0.2,0.1h4.5
	c0.1,0,0.1,0,0.2-0.1C-949.1,542.2-949.1,542.1-949.1,542.1z"/>
</svg>
